<?xml version="1.0" standalone="no"?>
<!DOCTYPE svg PUBLIC "-//W3C//DTD SVG 20010904//EN"
 "http://www.w3.org/TR/2001/REC-SVG-20010904/DTD/svg10.dtd">
<svg version="1.0" xmlns="http://www.w3.org/2000/svg"
 width="420.000000pt" height="594.000000pt" viewBox="0 0 420.000000 594.000000"
 preserveAspectRatio="xMidYMid meet">

<g transform="translate(0.000000,594.000000) scale(0.100000,-0.100000)"
fill="#fff" stroke="none">
<path d="M3083 5122 c-7 -4 -25 -25 -41 -46 -23 -31 -36 -39 -66 -41 -49 -3
-57 -17 -54 -90 1 -33 -2 -74 -6 -91 -9 -42 8 -82 39 -90 14 -3 25 -9 25 -13
0 -3 -21 -33 -48 -66 -26 -33 -54 -70 -62 -82 -8 -12 -33 -48 -56 -80 -94
-135 -148 -213 -200 -289 l-55 -81 -97 -6 c-262 -17 -631 -158 -793 -304 -84
-76 -115 -152 -97 -237 9 -41 21 -59 83 -120 40 -39 89 -82 109 -96 82 -56 77
-34 60 -225 -9 -105 -17 -366 -21 -680 l-6 -510 -62 -80 c-75 -97 -139 -162
-168 -171 -17 -5 -35 9 -101 77 -100 104 -316 354 -316 367 0 5 9 17 20 27 11
10 23 35 26 56 7 41 21 49 88 49 62 0 264 49 325 79 31 15 84 47 119 70 75 50
78 71 14 85 l-42 10 1 140 c0 78 4 192 8 255 10 135 1 175 -43 199 -26 15 -69
17 -286 19 l-255 2 -3 144 c-3 163 -5 167 -75 176 -42 6 -42 6 -44 51 -1 25
-2 50 -2 56 -1 7 -10 14 -21 17 -18 5 -20 0 -20 -59 l0 -64 -33 0 c-66 0 -71
-11 -77 -176 l-5 -147 -265 -1 c-200 -1 -271 -4 -291 -14 -50 -27 -58 -56 -69
-259 -5 -103 -10 -229 -10 -279 l0 -92 -37 -7 c-95 -18 -115 -54 -64 -116 67
-81 204 -120 428 -120 l132 -1 11 -32 c24 -73 112 -118 234 -120 45 0 101 2
126 6 l45 7 50 -62 c99 -122 224 -264 305 -345 89 -88 112 -97 168 -68 30 16
104 91 147 148 15 21 31 38 36 38 5 0 9 -218 9 -499 0 -434 2 -500 15 -511 9
-7 19 -10 23 -6 4 4 7 467 7 1029 0 886 3 1051 18 1242 10 120 20 221 22 223
2 3 30 -5 62 -16 157 -57 403 -106 611 -124 282 -23 500 12 633 101 57 38 79
81 41 81 -11 0 -25 -7 -33 -16 -32 -39 -178 -94 -299 -113 -237 -38 -707 27
-1014 142 -45 17 -176 117 -228 176 -42 47 -48 59 -48 98 0 131 198 273 540
387 92 30 268 66 326 66 43 0 43 -1 34 -26 -25 -64 29 -120 152 -159 90 -29
329 -69 474 -80 87 -7 92 -9 125 -42 31 -33 34 -34 37 -14 2 11 8 21 14 21 6
0 -8 17 -31 38 -41 37 -41 38 -51 132 -12 109 -17 130 -32 130 -7 0 -8 -14 -5
-37 4 -21 9 -76 13 -121 l7 -84 -114 7 c-286 16 -530 82 -561 151 -15 32 -5
60 51 139 23 33 86 125 141 205 54 80 103 150 108 156 5 5 22 30 38 55 16 24
31 46 34 49 3 3 16 19 30 36 70 89 85 104 99 104 34 0 83 -189 126 -478 14
-94 43 -204 45 -166 0 23 -32 237 -57 369 -38 207 -37 199 -24 191 33 -21 81
34 81 93 0 23 11 40 42 69 36 34 41 44 42 85 1 50 -8 61 -71 92 -18 9 -33 21
-33 28 0 7 -11 29 -25 50 -25 37 -54 47 -82 29z m63 -69 c23 -60 29 -67 62
-75 17 -5 38 -18 46 -29 13 -19 13 -25 -1 -53 -8 -17 -28 -39 -44 -48 -25 -15
-29 -23 -29 -61 0 -24 -6 -51 -13 -61 -19 -26 -52 -13 -67 25 -22 51 -34 58
-93 52 -45 -5 -55 -3 -61 12 -4 11 3 26 24 45 l30 28 -26 17 c-21 13 -25 23
-22 53 3 36 4 37 41 34 33 -3 39 0 55 29 41 77 75 88 98 32z m-2083 -1632 c16
-1 17 -12 15 -133 l-3 -133 -85 0 -85 0 -3 132 c-2 117 -1 132 15 135 15 3 96
2 146 -1z m588 -342 c20 -20 21 -29 15 -113 -3 -50 -9 -164 -12 -252 l-6 -161
-417 -2 c-229 -1 -540 -7 -691 -15 -151 -7 -278 -11 -282 -7 -3 3 -4 66 -1
139 5 107 9 132 20 132 9 0 28 11 45 25 41 35 67 31 118 -16 57 -52 84 -62
140 -54 52 8 69 16 129 62 24 18 51 33 59 33 8 0 35 -21 61 -46 69 -70 91 -84
125 -84 37 1 50 10 142 100 39 39 79 70 87 70 9 0 42 -22 72 -50 30 -27 65
-52 78 -55 50 -13 193 57 273 133 16 16 18 48 4 57 -6 4 -30 -9 -53 -27 -56
-46 -123 -83 -174 -99 l-43 -12 -49 47 c-97 90 -121 87 -233 -24 -51 -51 -88
-80 -102 -80 -13 0 -45 23 -83 60 -77 75 -118 82 -184 29 -89 -70 -149 -76
-210 -20 -58 55 -90 67 -140 52 -21 -6 -39 -16 -39 -20 0 -5 -7 -12 -16 -15
-15 -6 -16 5 -12 95 3 91 6 103 27 120 22 18 52 19 677 19 652 0 654 0 675
-21z m-12 -596 c35 -9 6 -35 -33 -28 -22 3 -25 3 -11 -3 18 -8 16 -10 -15 -25
-21 -10 -52 -15 -77 -13 -32 2 -40 0 -36 -10 3 -8 1 -14 -5 -14 -6 0 -13 6
-15 13 -4 7 -6 6 -6 -5 -2 -31 -120 -45 -501 -60 -374 -15 -459 -15 -552 -5
-77 8 -98 15 -98 31 0 7 -4 6 -9 -3 -11 -17 -46 0 -79 37 -18 21 -21 23 -16 7
6 -18 4 -17 -20 5 l-27 25 28 7 c62 17 252 31 503 38 337 9 940 11 969 3z
m-134 -83 c-3 -5 -11 -10 -16 -10 -6 0 -7 5 -4 10 3 6 11 10 16 10 6 0 7 -4 4
-10z"/>
<path d="M1531 2456 c-9 -11 -7 -15 9 -19 12 -3 18 -1 14 5 -4 6 0 14 7 19 11
7 11 9 -2 9 -9 0 -22 -6 -28 -14z"/>
<path d="M221 2401 c-10 -6 -9 -10 3 -14 8 -3 18 -2 21 3 8 13 -9 20 -24 11z"/>
<path d="M1258 2373 c7 -3 16 -2 19 1 4 3 -2 6 -13 5 -11 0 -14 -3 -6 -6z"/>
<path d="M977 3753 c-22 -25 -22 -86 -1 -104 14 -11 18 -10 30 6 17 23 17 50
1 88 -12 28 -13 28 -30 10z"/>
<path d="M1932 3737 c-41 -44 -19 -137 32 -137 19 0 22 4 19 24 -6 27 13 44
30 27 9 -9 8 -16 -1 -31 -7 -11 -8 -20 -2 -20 5 0 17 14 26 31 43 83 -43 171
-104 106z"/>
<path d="M3345 3720 c-3 -5 3 -10 14 -10 12 0 21 -7 21 -15 0 -18 -21 -20 -38
-3 -17 17 -15 -4 2 -27 12 -16 16 -17 30 -6 19 16 21 42 4 59 -15 15 -25 15
-33 2z"/>
<path d="M2892 3640 c-38 -36 -24 -124 23 -136 61 -15 105 31 91 97 -11 58
-72 78 -114 39z m47 -106 c-14 -14 -17 -14 -29 0 -10 13 -10 19 0 32 12 14 15
14 29 0 14 -15 14 -17 0 -32z"/>
<path d="M3447 3625 c-16 -12 -12 -22 51 -116 269 -409 412 -973 517 -2044 33
-335 64 -611 71 -630 8 -19 23 -19 31 0 3 9 -4 107 -16 218 -12 111 -33 312
-47 447 -75 728 -145 1117 -268 1491 -57 173 -108 296 -175 418 -23 41 -41 75
-41 76 0 4 -67 103 -88 129 -15 20 -21 22 -35 11z"/>
<path d="M3406 2534 c-13 -12 -16 -39 -16 -127 0 -149 -53 -1043 -65 -1093 -3
-13 -18 -25 -44 -34 -62 -20 -86 -61 -86 -145 0 -59 4 -75 23 -100 47 -60 114
-72 172 -32 79 53 92 161 30 238 l-33 41 11 97 c13 112 27 318 43 626 6 121
15 285 19 365 7 126 6 147 -7 163 -20 21 -27 21 -47 1z"/>
</g>
</svg>
