<?xml version="1.0" standalone="no"?>
<!DOCTYPE svg PUBLIC "-//W3C//DTD SVG 20010904//EN"
 "http://www.w3.org/TR/2001/REC-SVG-20010904/DTD/svg10.dtd">
<svg version="1.0" xmlns="http://www.w3.org/2000/svg"
 width="676.000000pt" height="369.000000pt" viewBox="0 0 676.000000 369.000000"
 preserveAspectRatio="xMidYMid meet">

<g transform="translate(0.000000,369.000000) scale(0.100000,-0.100000)"
fill="#fff" stroke="none">
<path d="M4913 3539 c-152 -59 -238 -260 -185 -436 56 -184 211 -271 366 -208
17 8 18 4 11 -62 -8 -78 1 -94 37 -69 12 9 28 16 35 16 13 0 73 -120 93 -187
15 -49 7 -101 -20 -136 -19 -24 -22 -25 -48 -11 -49 25 -112 12 -112 -25 0
-27 24 -43 75 -49 41 -4 45 -7 45 -31 0 -15 -11 -47 -24 -71 -64 -117 -77
-150 -78 -198 0 -51 31 -126 78 -189 13 -17 24 -34 24 -37 0 -11 -46 -6 -57 5
-6 6 -19 8 -29 5 -17 -5 -19 -21 -22 -168 -2 -90 -6 -188 -10 -218 l-7 -54
-37 52 c-44 60 -162 266 -173 300 -7 23 -8 23 -108 17 -56 -4 -105 -10 -110
-14 -4 -4 -14 -113 -21 -242 -13 -214 -45 -464 -65 -514 -8 -19 -16 -20 -112
-18 -57 1 -118 2 -135 3 l-31 0 5 98 c2 53 6 99 8 101 2 2 52 7 111 10 l108 6
3 106 c2 80 -1 108 -10 111 -7 3 -55 -2 -107 -9 -51 -8 -95 -12 -97 -10 -2 2
-1 50 4 107 l7 104 120 18 c66 11 130 21 143 24 21 4 22 8 22 128 0 96 -3 126
-14 136 -12 9 -42 9 -133 1 -130 -13 -375 -40 -410 -47 -26 -5 -27 -11 -43
-252 -6 -89 -13 -182 -16 -206 l-6 -44 -61 29 c-34 16 -87 31 -119 35 -32 4
-58 10 -58 13 0 4 24 17 53 29 127 54 186 126 195 239 4 54 1 68 -18 96 -35
51 -88 83 -180 107 -105 27 -226 36 -304 21 -32 -6 -92 -26 -135 -45 l-76 -35
-6 -68 c-4 -37 -7 -106 -8 -153 -1 -51 -5 -79 -10 -70 -16 29 -53 193 -55 244
l-1 51 -195 -2 -195 -3 -24 -102 -24 -103 -17 56 c-28 94 -103 186 -186 228
-62 32 -187 54 -269 47 -80 -7 -179 -37 -227 -69 -28 -20 -34 -30 -40 -77 -13
-102 -30 -205 -35 -220 -9 -27 -44 104 -50 187 -5 65 -2 93 11 128 21 55 88
115 153 140 109 40 197 116 209 180 6 32 -2 83 -21 128 -6 14 -2 17 19 17 32
0 32 8 0 71 -14 28 -24 52 -22 53 2 1 38 19 80 40 171 85 273 241 285 437 7
108 -10 167 -75 263 -80 119 -174 166 -332 166 -143 0 -251 -50 -324 -149 -74
-101 -126 -260 -126 -388 0 -70 4 -88 32 -144 56 -112 154 -191 275 -220 26
-7 49 -13 51 -15 2 -1 -6 -21 -18 -44 -30 -59 -23 -70 48 -70 52 0 59 -2 74
-27 23 -40 30 -86 19 -115 -17 -46 -80 -98 -166 -138 -114 -52 -153 -84 -184
-150 l-26 -55 -85 3 c-47 2 -140 0 -208 -3 l-123 -7 -30 -59 c-16 -32 -31 -59
-34 -59 -2 0 -23 24 -47 53 -40 49 -45 62 -68 177 -18 92 -21 125 -12 128 19
6 14 29 -7 35 -15 4 -25 31 -50 143 -38 167 -53 222 -91 334 -16 47 -27 86
-25 88 2 2 14 -3 27 -12 12 -9 30 -16 40 -16 24 0 23 27 -2 35 -29 9 -24 22
11 30 21 5 29 12 26 23 -3 18 -4 18 -56 7 l-34 -7 21 35 c12 19 22 37 22 41 0
15 -26 3 -46 -21 l-22 -28 -7 30 c-11 49 -14 55 -26 55 -8 0 -10 -12 -6 -34 7
-42 2 -48 -29 -34 -39 18 -42 -2 -5 -33 19 -16 33 -30 30 -33 -2 -2 -26 -10
-54 -18 -31 -8 -50 -19 -50 -28 0 -16 16 -18 52 -6 22 7 23 6 16 -41 -8 -67
-52 -173 -139 -339 -41 -78 -90 -186 -108 -241 -52 -153 -64 -178 -96 -196
-16 -10 -48 -36 -71 -58 l-42 -40 7 -134 c3 -73 14 -196 23 -272 10 -86 17
-244 19 -422 1 -156 6 -287 11 -291 14 -13 351 -18 368 -6 14 10 13 24 -5 121
-12 64 -24 175 -27 267 l-6 156 84 43 c86 42 185 105 228 143 l24 21 -7 -29
c-4 -17 -27 -80 -50 -140 -24 -61 -78 -215 -121 -343 -69 -202 -77 -234 -65
-248 13 -15 36 -17 206 -14 106 2 195 7 198 10 7 7 46 138 97 324 42 156 54
178 98 173 31 -4 35 -19 61 -218 27 -210 36 -260 47 -271 14 -14 189 -38 309
-43 57 -2 107 -7 112 -10 5 -3 49 0 97 6 l88 12 -5 133 c-3 73 -4 133 -2 133
2 0 29 -39 60 -87 73 -114 122 -173 143 -173 9 0 27 12 40 26 16 16 30 23 40
18 9 -4 57 -9 106 -12 69 -3 93 -1 102 9 6 8 20 57 32 109 28 123 92 333 106
342 32 23 44 -5 90 -212 25 -112 48 -207 50 -211 9 -14 73 -17 184 -7 63 5
118 11 123 14 5 3 52 7 106 9 122 4 253 35 356 85 l79 39 -6 -59 c-3 -39 -1
-62 6 -68 14 -11 339 -24 594 -23 102 0 217 -4 256 -9 60 -9 73 -8 88 6 21 19
21 7 -6 256 -8 75 -15 149 -15 165 l0 27 41 -39 c56 -54 174 -213 218 -294
l36 -66 80 -8 c101 -11 140 1 131 38 -8 32 -4 31 58 -4 28 -16 98 -44 156 -61
91 -28 121 -32 221 -33 110 -1 120 1 174 29 160 81 242 230 216 395 -15 90
-46 131 -132 173 -72 36 -154 56 -292 74 -42 5 -84 15 -92 22 -24 20 -18 59
14 91 25 24 38 29 79 29 79 0 136 -30 192 -100 l20 -25 22 30 c27 37 58 67
123 123 47 40 49 44 31 55 -10 7 -26 21 -35 32 -9 10 -52 57 -96 103 -63 66
-96 91 -153 119 l-74 35 79 45 c128 73 182 119 209 177 13 28 24 63 24 78 0
23 5 27 33 30 l32 3 0 70 0 69 73 41 c216 119 353 319 353 512 0 149 -87 263
-201 263 -19 0 -55 -9 -79 -20 -60 -28 -88 -25 -173 15 -40 19 -99 41 -130 47
-51 11 -63 10 -105 -8 -31 -13 -58 -33 -78 -61 -24 -33 -41 -45 -85 -58 -74
-23 -105 -40 -156 -87 -91 -84 -145 -204 -145 -326 0 -81 11 -126 48 -189 l24
-41 -33 -7 c-36 -8 -78 -31 -78 -44 0 -4 11 -13 25 -19 l25 -12 -25 -38 c-14
-21 -41 -76 -60 -123 -29 -70 -35 -96 -35 -159 0 -69 8 -123 24 -160 7 -18
-28 -35 -89 -45 -47 -7 -65 8 -131 110 -35 53 -39 67 -39 120 0 54 5 70 42
131 44 73 67 141 57 168 -4 9 4 28 19 45 14 17 33 51 43 76 22 58 10 119 -45
225 -35 69 -37 77 -24 97 14 20 12 25 -26 66 -23 24 -41 47 -41 49 0 3 13 11
30 18 41 17 97 82 129 149 22 47 26 70 26 141 0 76 -4 93 -33 152 -40 81 -94
132 -163 152 -73 22 -182 20 -246 -5z m242 -48 c56 -25 101 -66 133 -120 24
-41 27 -56 27 -136 0 -76 -4 -98 -25 -138 -64 -126 -263 -220 -364 -172 -48
23 -112 96 -145 165 -21 45 -25 70 -26 136 0 70 4 88 30 139 33 64 82 109 141
130 57 21 180 19 229 -4z m-2806 -101 c74 -14 115 -36 167 -88 56 -58 103
-152 111 -223 18 -176 -100 -383 -268 -470 -60 -32 -70 -34 -164 -34 -93 0
-105 2 -167 33 -68 33 -127 93 -170 174 -54 100 16 387 122 502 95 103 211
136 369 106z m3817 -248 c102 -47 133 -51 195 -22 130 59 229 -28 229 -200 0
-214 -162 -430 -385 -516 -39 -14 -43 -14 -98 11 l-57 27 37 43 c49 55 117
169 138 231 31 92 -4 184 -108 280 -65 62 -135 102 -194 111 l-32 6 20 26 c49
63 122 64 255 3z m-181 -100 c69 -33 155 -116 185 -177 24 -49 26 -122 5 -172
-31 -73 -123 -198 -179 -241 -114 -88 -192 -97 -313 -37 -74 37 -75 38 -110
111 -34 72 -35 78 -31 168 3 84 8 102 42 172 48 97 116 168 179 186 84 24 155
21 222 -10z m-805 -177 c13 -14 22 -26 19 -28 -17 -12 -60 -30 -63 -26 -6 7 6
79 13 79 4 0 18 -11 31 -25z m-4040 -276 c22 -73 20 -89 -8 -89 -9 -1 -42 -9
-72 -20 -30 -10 -56 -17 -58 -16 -3 3 74 202 85 220 10 15 31 -22 53 -95z
m1130 -91 c32 -35 25 -45 -32 -44 -58 1 -69 15 -39 45 27 27 45 26 71 -1z
m-1096 -37 c4 -5 9 -29 12 -53 l6 -43 -62 -12 c-34 -6 -101 -31 -149 -54 -47
-24 -90 -45 -95 -47 -5 -3 9 28 30 68 35 64 45 75 97 101 76 39 151 57 161 40z
m4006 -41 c8 -5 12 -12 8 -15 -9 -9 -59 6 -52 16 7 12 25 11 44 -1z m408 -12
c14 -14 16 -44 3 -53 -10 -6 -90 45 -91 58 0 12 75 8 88 -5z m469 -14 c48 -19
51 -24 24 -48 -25 -23 -63 -112 -59 -139 4 -28 34 -34 59 -11 25 23 33 13 24
-32 -10 -57 -98 -137 -225 -207 -95 -52 -111 -57 -166 -57 -79 0 -143 -20
-193 -59 l-40 -32 -15 28 c-28 55 -49 149 -49 218 1 77 31 166 84 250 l29 46
29 -20 c40 -29 50 -27 67 15 17 40 9 39 119 8 75 -21 167 -9 223 30 45 30 37
29 89 10z m112 -80 c29 -37 18 -52 -40 -52 -27 0 -49 3 -49 5 0 16 44 73 55
73 7 0 23 -12 34 -26z m-4949 -51 c7 -32 14 -61 16 -65 2 -3 -22 -12 -53 -18
-84 -16 -238 -67 -306 -102 -33 -16 -61 -27 -64 -24 -8 7 28 109 45 129 23 26
156 97 221 118 31 10 73 18 93 18 l37 1 11 -57z m30 -139 c6 -14 13 -42 16
-63 l6 -38 -48 -5 c-27 -2 -87 -22 -133 -42 -82 -38 -85 -38 -170 -32 -47 4
-102 11 -121 15 l-35 7 40 26 c102 64 226 114 356 143 35 7 67 14 72 14 4 1
12 -11 17 -25z m34 -150 c3 -9 6 -25 6 -36 0 -18 -4 -20 -37 -14 -21 3 -63 6
-92 6 -66 0 -59 13 21 41 66 23 94 24 102 3z m1191 -46 c155 -33 240 -136 239
-293 0 -115 -73 -198 -259 -295 -107 -55 -124 -71 -106 -99 6 -10 13 -10 28
-2 18 9 30 -2 114 -107 52 -64 129 -158 171 -209 l78 -92 -33 -24 c-17 -13
-54 -36 -81 -52 l-50 -28 -34 39 c-59 67 -182 258 -182 281 0 19 -6 23 -30 23
-22 0 -30 -5 -30 -18 0 -10 5 -23 10 -28 7 -7 9 -72 8 -175 l-3 -164 -63 -9
c-34 -5 -65 -7 -67 -4 -6 6 -34 147 -70 348 -14 80 -41 212 -60 293 -29 124
-33 155 -25 195 5 26 17 119 26 207 10 88 22 165 28 171 17 18 114 47 181 54
67 8 135 4 210 -12z m-1640 -26 c-6 -5 -39 -21 -75 -36 -80 -33 -129 -71 -114
-86 8 -8 23 -1 52 23 23 20 70 44 111 57 39 12 71 27 71 33 0 10 197 4 354
-10 64 -5 72 -9 107 -46 53 -54 65 -102 44 -175 -21 -71 -64 -140 -112 -178
-76 -61 -168 -118 -261 -162 l-95 -45 6 -161 c3 -88 13 -199 21 -246 25 -132
37 -120 -124 -120 l-140 0 0 198 c0 119 -8 278 -20 402 -11 113 -23 262 -26
333 -8 144 -8 145 75 199 32 20 58 28 90 28 25 0 41 -4 36 -8z m2923 -7 c147
-35 200 -87 189 -188 -3 -30 -11 -65 -17 -77 -23 -43 -188 -129 -333 -174 -14
-4 -16 -10 -9 -23 8 -14 27 -17 113 -18 157 -1 276 -50 312 -128 8 -18 25 -54
37 -80 27 -57 23 -105 -16 -183 -42 -87 -149 -159 -304 -203 -84 -25 -267 -41
-256 -23 3 6 -5 41 -19 79 -13 38 -53 170 -88 294 -59 207 -63 229 -56 284 4
33 8 133 8 222 l1 162 33 17 c79 42 131 53 237 53 58 1 133 -6 168 -14z
m-1873 -105 c12 -58 42 -184 68 -280 57 -218 157 -719 157 -790 0 -19 -281 -3
-300 16 -4 5 -20 93 -35 196 -15 103 -32 209 -39 235 l-12 47 -73 0 -73 0 -60
-184 c-33 -102 -67 -210 -76 -241 l-16 -56 -154 -7 c-85 -4 -157 -5 -160 -1
-6 6 40 147 159 488 38 109 76 225 85 259 8 34 23 74 33 88 27 39 41 78 41
111 0 16 20 72 45 124 53 110 35 103 249 101 l140 -1 21 -105z m2684 58 c0
-24 -4 -65 -7 -92 l-7 -49 -50 -12 c-82 -19 -170 -35 -197 -35 -25 0 -25 0
-38 -137 -12 -129 -12 -137 6 -150 10 -7 25 -11 33 -9 9 3 52 8 96 12 l80 6
-3 -48 c-6 -94 -5 -94 -70 -94 -31 0 -80 -3 -108 -6 l-52 -7 -1 -84 c0 -46 -3
-99 -6 -117 -11 -55 5 -62 155 -68 72 -3 133 -8 136 -11 3 -3 -3 -43 -13 -89
l-19 -83 -195 0 c-108 0 -218 1 -245 3 l-49 4 2 64 c1 54 6 69 29 97 80 95 86
263 11 364 -22 30 -23 37 -15 95 5 35 14 148 21 253 l12 190 120 12 c418 41
375 42 374 -9z m1226 -2 c97 -20 175 -68 265 -162 44 -46 80 -88 80 -93 0 -5
-15 -18 -32 -29 -18 -12 -46 -34 -62 -51 l-29 -30 -40 34 c-54 47 -123 61
-194 40 -69 -20 -102 -50 -110 -98 -13 -82 45 -121 196 -131 142 -9 244 -61
297 -152 24 -41 26 -51 20 -112 -4 -37 -18 -92 -32 -122 -39 -86 -133 -171
-193 -175 -14 -1 -45 -5 -67 -9 -47 -8 -203 15 -304 46 -81 24 -187 86 -194
113 -13 47 -5 64 55 119 34 32 72 64 86 73 24 16 25 15 68 -34 134 -153 373
-117 279 42 -14 26 -36 52 -48 60 -26 17 -148 61 -239 87 -88 24 -134 48 -175
91 l-33 34 14 147 13 147 58 58 c62 63 120 97 188 110 60 12 65 12 133 -3z
m-360 -85 c-13 -14 -15 -10 -15 34 l1 50 15 -34 c13 -31 13 -36 -1 -50z
m-2259 -47 c46 -224 174 -710 229 -863 8 -24 15 -47 15 -51 0 -10 -159 -33
-204 -28 l-40 3 -47 195 c-26 107 -45 199 -42 206 4 12 -127 28 -139 16 -8 -9
-103 -325 -112 -373 -8 -47 -22 -58 -82 -65 l-49 -6 48 32 c47 32 60 61 34 77
-7 4 -47 48 -89 97 l-76 88 14 37 c40 109 168 550 185 636 11 54 25 103 32
107 7 4 77 6 157 4 l144 -3 22 -109z m2190 18 c-4 -42 -14 -151 -23 -242 -12
-126 -14 -226 -10 -422 6 -246 6 -258 -12 -258 -10 0 -32 -3 -48 -6 -27 -5
-31 -2 -57 46 -42 78 -165 236 -255 328 -63 65 -85 82 -101 77 -14 -5 -18 -13
-15 -33 6 -39 25 -304 28 -385 l2 -69 -139 2 c-137 1 -161 4 -152 19 5 7 54
293 81 468 8 56 18 185 22 287 l6 185 46 7 c95 13 72 34 194 -178 74 -130 181
-273 203 -273 14 0 18 6 16 25 -6 44 -4 373 3 436 l6 60 106 2 105 2 -6 -78z
m-2716 -447 c-27 -87 -50 -165 -50 -171 0 -33 -22 -16 -88 65 -40 49 -72 92
-72 95 0 3 33 21 73 40 47 23 91 54 127 91 30 30 56 52 57 48 2 -5 -19 -80
-47 -168z m2782 -15 c23 -17 67 -37 97 -46 198 -55 253 -76 291 -111 65 -58
45 -101 -39 -82 -75 17 -115 43 -144 97 -45 83 -45 83 -141 7 -47 -36 -88 -71
-91 -76 -16 -25 -22 2 -23 116 -2 69 0 125 3 125 3 0 24 -14 47 -30z"/>
<path d="M4852 3398 c-7 -7 -12 -30 -12 -52 0 -21 3 -36 7 -32 7 7 33 76 33
89 0 11 -15 8 -28 -5z"/>
<path d="M2099 3322 c-70 -45 -136 -133 -123 -166 10 -26 29 -18 46 18 22 45
72 100 114 126 34 21 46 50 21 50 -7 0 -33 -13 -58 -28z"/>
<path d="M1940 3071 c0 -20 13 -41 25 -41 21 0 28 19 15 35 -14 17 -40 20 -40
6z"/>
<path d="M6448 3064 c-10 -9 53 -125 64 -118 14 9 2 60 -23 95 -20 29 -30 34
-41 23z"/>
<path d="M6485 2880 c-4 -7 -3 -16 2 -21 12 -12 45 0 40 15 -5 15 -34 19 -42
6z"/>
<path d="M5774 3006 c-51 -24 -88 -61 -78 -78 3 -5 16 -2 27 6 43 31 112 62
130 58 23 -5 22 15 -2 28 -25 13 -17 14 -77 -14z"/>
<path d="M5637 2864 c-16 -16 -6 -34 19 -34 19 0 25 5 22 17 -3 19 -29 29 -41
17z"/>
<path d="M2221 1900 c-45 -11 -111 -41 -111 -52 0 -12 32 -9 60 7 14 8 51 14
82 15 57 0 83 14 57 31 -16 10 -41 10 -88 -1z"/>
<path d="M2375 1763 c-11 -3 -41 -14 -68 -25 l-48 -21 3 -140 c4 -178 4 -178
122 -118 120 61 198 154 180 214 -20 69 -107 110 -189 90z m119 -45 c14 -6 28
-19 31 -29 9 -26 -29 -92 -71 -127 -51 -42 -134 -86 -144 -76 -14 16 -20 202
-7 212 38 30 146 41 191 20z"/>
<path d="M975 1764 c-16 -3 -51 -14 -77 -26 l-48 -21 0 -122 c0 -153 4 -158
92 -124 73 29 181 123 198 173 26 81 -49 136 -165 120z m99 -34 c30 -11 34
-45 12 -88 -19 -36 -93 -106 -133 -126 -59 -29 -61 -26 -65 80 -3 107 -3 108
64 129 53 17 89 18 122 5z"/>
<path d="M871 938 c2 -109 9 -150 28 -156 10 -3 12 6 8 44 -4 27 -9 84 -12
127 -4 42 -11 77 -16 77 -5 0 -8 -42 -8 -92z"/>
<path d="M3540 1781 c-24 -7 -24 -9 -21 -91 1 -47 7 -89 12 -95 12 -12 89 8
159 43 44 22 57 34 64 60 7 26 5 36 -9 52 -31 35 -135 50 -205 31z m136 -26
c30 -12 35 -19 32 -42 -4 -33 -50 -67 -104 -77 -20 -4 -37 -6 -39 -4 -2 2 -5
30 -6 63 -3 56 -1 60 22 66 39 11 57 10 95 -6z"/>
<path d="M3611 1282 l-34 -17 0 -150 0 -150 48 3 c69 5 164 46 221 96 47 42
49 46 48 94 0 28 -7 58 -14 67 -16 19 -66 42 -135 61 -66 18 -93 17 -134 -4z
m131 -34 c95 -28 126 -104 66 -160 -37 -34 -108 -72 -155 -82 l-31 -7 -4 118
c-3 95 -1 120 11 131 19 15 62 15 113 0z"/>
<path d="M3996 1118 c-10 -50 -61 -125 -106 -153 -22 -14 -45 -25 -51 -25 -6
0 -9 -6 -7 -12 22 -66 187 92 191 183 3 43 -19 48 -27 7z"/>
<path d="M1686 1650 l-44 -40 -30 17 c-25 14 -34 15 -56 5 -33 -15 -49 -53
-36 -88 12 -30 140 -174 156 -174 16 0 101 135 119 191 18 53 15 88 -11 113
-25 25 -51 19 -98 -24z m74 -15 c6 -17 5 -37 -6 -66 -17 -49 -65 -129 -77
-129 -17 0 -99 74 -113 102 -30 58 14 94 54 43 11 -14 24 -25 30 -25 6 0 26
23 46 50 40 56 52 61 66 25z"/>
<path d="M1959 1195 c-4 -33 47 -359 61 -392 17 -40 33 -27 26 20 -4 23 -18
112 -32 197 -15 95 -30 160 -39 169 -8 9 -15 11 -16 6z"/>
<path d="M4508 1784 c-2 -32 2 -60 8 -65 18 -15 24 1 24 63 0 43 -4 58 -14 58
-10 0 -15 -16 -18 -56z"/>
<path d="M5626 1796 c-42 -16 -74 -42 -63 -52 3 -4 29 3 56 15 92 39 225 21
324 -45 50 -33 63 -21 17 17 -76 64 -247 97 -334 65z"/>
<path d="M3055 1610 c-11 -4 -30 -22 -43 -39 -22 -30 -24 -31 -52 -16 -66 34
-108 8 -90 -57 10 -35 111 -161 133 -166 19 -4 52 36 91 111 41 78 47 134 18
160 -20 19 -28 20 -57 7z m35 -50 c0 -28 -37 -120 -59 -150 l-19 -24 -23 19
c-38 34 -79 97 -79 121 0 24 0 24 35 7 19 -9 35 -20 35 -25 0 -4 9 -8 20 -8
11 0 20 3 20 8 0 4 9 22 20 40 22 36 50 43 50 12z"/>
<path d="M3275 1133 c12 -33 44 -157 56 -221 10 -56 29 -85 45 -70 5 5 -50
240 -66 282 -5 14 -17 26 -26 26 -11 0 -14 -5 -9 -17z"/>
<path d="M5253 1783 c-67 -5 -69 -23 -3 -23 50 0 50 0 50 -32 -1 -18 -7 -62
-15 -98 -17 -77 -19 -150 -5 -150 13 0 14 3 35 135 17 113 17 167 0 170 -5 1
-34 -1 -62 -2z"/>
<path d="M5631 3305 l-30 -26 -21 21 c-29 29 -84 24 -88 -7 -4 -25 40 -113 69
-139 24 -21 52 -11 105 38 49 45 73 100 54 123 -19 22 -55 18 -89 -10z m-54
-40 c32 -40 39 -43 48 -15 8 25 50 54 65 45 22 -14 -34 -83 -97 -119 -15 -8
-73 77 -73 106 0 29 27 21 57 -17z"/>
<path d="M1345 3079 c-10 -30 19 -53 47 -38 29 15 20 53 -14 57 -20 2 -28 -2
-33 -19z"/>
<path d="M711 2946 c-17 -20 -4 -56 18 -56 28 0 47 28 34 48 -14 23 -37 26
-52 8z"/>
<path d="M4667 2846 c-14 -35 23 -67 50 -45 8 7 13 22 11 33 -4 26 -52 35 -61
12z"/>
<path d="M1458 2808 c-17 -17 -20 -29 -15 -77 6 -68 34 -141 54 -141 20 0 141
72 176 104 22 20 28 34 25 59 -3 28 -7 32 -35 35 -17 2 -45 -4 -62 -12 -41
-22 -48 -20 -63 11 -19 38 -53 48 -80 21z m50 -30 c7 -7 12 -24 12 -39 0 -15
4 -30 8 -33 5 -3 35 8 67 25 63 32 94 27 61 -10 -22 -25 -133 -91 -151 -91
-21 0 -46 136 -28 153 9 10 17 9 31 -5z"/>
<path d="M4821 2694 c-11 -15 -21 -33 -21 -40 0 -17 -5 -17 -30 -4 -52 28 -69
-38 -22 -85 52 -52 126 -62 142 -19 21 55 1 166 -31 172 -9 2 -26 -9 -38 -24z
m44 -80 c0 -57 -1 -59 -27 -62 -18 -2 -37 6 -60 27 -38 33 -33 48 11 33 35
-12 41 -8 41 28 0 30 8 42 24 37 6 -2 11 -30 11 -63z"/>
<path d="M1911 2432 c-33 -34 -40 -38 -79 -34 -50 5 -72 -10 -72 -47 0 -56
110 -147 160 -134 48 13 107 178 84 237 -11 29 -55 18 -93 -22z m49 -94 c-11
-30 -30 -64 -41 -74 -19 -17 -21 -17 -55 1 -42 22 -78 70 -70 90 8 22 52 18
75 -6 22 -24 41 -18 41 12 0 11 15 35 33 52 l32 32 3 -26 c2 -14 -6 -50 -18
-81z"/>
<path d="M4506 2444 c-10 -9 -15 -23 -12 -31 3 -8 6 -17 6 -19 0 -2 11 -4 25
-4 29 0 43 25 28 48 -14 23 -29 25 -47 6z"/>
<path d="M555 2299 c-10 -30 18 -58 43 -43 9 6 17 22 17 35 0 34 -50 41 -60 8z"/>
<path d="M2611 2261 c-7 -5 -11 -19 -9 -32 4 -33 52 -35 56 -2 4 25 -27 46
-47 34z"/>
<path d="M3290 2235 c-18 -22 -8 -50 19 -50 32 0 49 28 32 49 -17 20 -35 20
-51 1z"/>
<path d="M6317 2222 c-26 -29 -21 -182 6 -182 32 0 151 44 177 66 57 49 27 90
-61 82 -43 -5 -49 -2 -69 24 -24 33 -31 34 -53 10z m39 -37 c4 -8 1 -22 -6
-30 -19 -23 16 -31 50 -11 39 22 93 22 88 -1 -4 -22 -59 -50 -114 -59 -41 -6
-42 -5 -49 25 -12 56 14 120 31 76z"/>
<path d="M4610 2181 c0 -12 -18 -41 -40 -65 -22 -24 -40 -48 -40 -53 0 -9 96
-80 123 -92 5 -2 15 7 24 18 8 12 42 53 75 92 70 81 68 93 -20 102 -31 4 -72
9 -89 13 -29 6 -33 4 -33 -15z m103 -27 c20 -4 37 -10 37 -15 0 -4 -25 -35
-57 -68 -58 -62 -60 -63 -107 -28 -19 14 -19 16 17 58 20 23 37 46 37 51 0 10
21 10 73 2z"/>
<path d="M1750 2155 c-19 -23 -8 -50 20 -50 19 0 26 6 28 24 5 35 -26 53 -48
26z"/>
<path d="M4091 2137 c-24 -29 17 -70 46 -46 8 7 13 22 11 33 -4 25 -40 33 -57
13z"/>
<path d="M1260 473 c0 -39 83 -116 150 -138 67 -22 121 -15 174 22 l41 29 45
-28 c85 -53 186 -50 246 7 l36 34 34 -25 c94 -72 220 -68 302 9 l24 22 20 -28
c26 -36 91 -73 152 -87 68 -15 144 2 199 44 l43 33 37 -32 c40 -34 129 -65
189 -65 46 0 95 17 136 47 l34 25 31 -32 c18 -18 57 -45 87 -59 75 -35 204
-37 266 -4 39 21 87 68 96 93 2 8 17 8 51 -1 58 -14 118 -7 152 18 l26 18 48
-46 c34 -33 67 -52 111 -68 107 -35 195 -25 281 35 l39 27 23 -21 c42 -39 117
-66 187 -66 68 0 98 11 141 50 l25 24 57 -30 c93 -51 192 -39 251 30 l23 28
54 -26 c70 -35 179 -42 246 -17 79 30 146 108 129 150 -10 26 -31 16 -44 -20
-33 -89 -152 -128 -280 -90 -35 11 -59 25 -74 45 -29 40 -44 38 -68 -10 -41
-80 -133 -104 -216 -55 -31 18 -46 35 -52 58 -10 40 -45 45 -50 8 -5 -36 -31
-70 -65 -88 -62 -31 -194 -8 -239 43 -9 10 -20 35 -25 54 -11 44 -34 45 -45 4
-18 -70 -116 -121 -214 -111 -91 9 -204 85 -204 137 0 9 -6 23 -14 29 -11 10
-19 7 -35 -10 -12 -13 -21 -26 -21 -30 0 -4 -17 -15 -37 -24 -31 -15 -44 -16
-87 -6 -30 7 -58 20 -67 33 -23 29 -49 17 -49 -23 0 -38 -31 -84 -73 -106 -40
-21 -156 -23 -210 -4 -50 17 -106 67 -124 108 -17 42 -36 42 -63 -1 -23 -39
-91 -76 -136 -76 -83 0 -185 54 -198 105 -9 36 -40 32 -65 -8 -49 -80 -160
-101 -260 -50 -48 24 -58 35 -71 71 -8 23 -21 42 -28 42 -8 0 -37 -20 -64 -45
-61 -55 -115 -72 -176 -56 -59 15 -92 39 -108 78 -19 45 -44 42 -69 -10 -42
-86 -137 -98 -236 -31 -28 19 -53 34 -56 34 -2 0 -25 -17 -50 -37 -38 -31 -52
-37 -92 -36 -72 1 -146 45 -177 106 -19 35 -44 36 -44 0z"/>
<path d="M2320 310 c0 -15 5 -20 18 -18 9 2 17 10 17 18 0 8 -8 16 -17 18 -13
2 -18 -3 -18 -18z"/>
<path d="M1935 310 c-4 -7 -3 -16 3 -22 14 -14 45 -2 40 15 -6 16 -34 21 -43
7z"/>
<path d="M1565 290 c-4 -7 -3 -16 3 -22 14 -14 45 -2 40 15 -6 16 -34 21 -43
7z"/>
<path d="M2707 284 c-14 -14 -7 -35 11 -32 9 2 17 10 17 17 0 16 -18 25 -28
15z"/>
<path d="M3065 280 c-4 -7 -3 -16 3 -22 14 -14 45 -2 40 15 -6 16 -34 21 -43
7z"/>
<path d="M3641 281 c-12 -8 -13 -12 -2 -25 16 -19 43 -3 34 20 -6 16 -12 17
-32 5z"/>
<path d="M5050 270 c0 -15 5 -20 18 -18 9 2 17 10 17 18 0 8 -8 16 -17 18 -13
2 -18 -3 -18 -18z"/>
<path d="M3795 260 c-4 -7 -3 -16 3 -22 14 -14 45 -2 40 15 -6 16 -34 21 -43
7z"/>
<path d="M4284 249 c-8 -14 11 -33 25 -25 16 10 13 36 -3 36 -8 0 -18 -5 -22
-11z"/>
</g>
</svg>
